<?xml version="1.0" encoding="UTF-8" standalone="no"?>
<svg
   xmlns:dc="http://purl.org/dc/elements/1.1/"
   xmlns:cc="http://creativecommons.org/ns#"
   xmlns:rdf="http://www.w3.org/1999/02/22-rdf-syntax-ns#"
   xmlns:svg="http://www.w3.org/2000/svg"
   xmlns="http://www.w3.org/2000/svg"
   xmlns:sodipodi="http://sodipodi.sourceforge.net/DTD/sodipodi-0.dtd"
   xmlns:inkscape="http://www.inkscape.org/namespaces/inkscape"
   width="150pt"
   height="60pt"
   viewBox="0 0 150 60"
   version="1.1"
   id="svg1013"
   sodipodi:docname="logo.svg"
   inkscape:version="1.0 (4035a4fb49, 2020-05-01)">
  <metadata
     id="metadata1019">
    <rdf:RDF>
      <cc:Work
         rdf:about="">
        <dc:format>image/svg+xml</dc:format>
        <dc:type
           rdf:resource="http://purl.org/dc/dcmitype/StillImage" />
        <dc:title></dc:title>
      </cc:Work>
    </rdf:RDF>
  </metadata>
  <defs
     id="defs1017" />
  <sodipodi:namedview
     inkscape:document-rotation="0"
     pagecolor="#ffffff"
     bordercolor="#666666"
     borderopacity="1"
     objecttolerance="10"
     gridtolerance="10"
     guidetolerance="10"
     inkscape:pageopacity="0"
     inkscape:pageshadow="2"
     inkscape:window-width="1366"
     inkscape:window-height="705"
     id="namedview1015"
     showgrid="false"
     inkscape:zoom="2.1479392"
     inkscape:cx="104.41771"
     inkscape:cy="33.078229"
     inkscape:window-x="-8"
     inkscape:window-y="-8"
     inkscape:window-maximized="1"
     inkscape:current-layer="svg1013" />
  <g
     id="#8716fdff"
     transform="matrix(0.27340076,0,0,0.27340076,4.3264574,1.4814376)">
    <path
       fill="#8716fd"
       opacity="1"
       d="m 16.21,4.1 c 3.96,-2.68 9.81,-1.89 12.78,1.9 10.77,13.17 21.32,26.51 32.06,39.7 20.66,0.11 41.32,-0.05 61.98,0.07 5,-0.17 9.54,4.23 9.62,9.22 0.38,3.96 -2.38,7.12 -4.41,10.21 -24.33,36.65 -48.67,73.29 -72.96,109.96 -1.75,2.98 -4.6,5.57 -8.18,5.89 -5.65,0.65 -11.07,-4.31 -10.77,-10.04 -0.06,-32.63 -0.09,-65.27 0.02,-97.9 -0.33,-3.55 3.29,-6.34 6.67,-5.4 3.36,0.55 4.36,4.37 4.12,7.29 -0.08,30.95 0.1,61.89 -0.15,92.83 1.18,-1.43 2.3,-2.9 3.33,-4.44 23.53,-35.72 47.33,-71.27 70.84,-107 -19.71,0.05 -39.42,-0.01 -59.12,0.05 -3.56,0.2 -7.28,-1.02 -9.42,-4 C 42.89,40.35 33.23,28.2 23.41,16.19 c 2.34,12.27 5.36,24.42 7.99,36.65 3.89,0.11 7.82,-0.3 11.69,0.17 2.46,0.43 3.42,3 4.35,4.97 -0.68,1.43 -1.18,2.99 -2.26,4.18 C 43.56,63.82 41.09,63.39 39,63.49 35.35,63.4 31.67,63.71 28.06,63.13 24.69,62.3 21.92,59.45 21.14,56.07 18.08,42.37 15.1,28.65 12.06,14.94 10.97,10.9 12.55,6.27 16.21,4.1 Z"
       id="path940" />
    <path
       fill="#8716fd"
       opacity="1"
       d="m 252.32,19.48 c 5.04,-2.05 11.42,1.85 10.94,7.53 0.1,29.34 -0.02,58.68 0.03,88.02 0.1,4.5 1.29,9.73 5.37,12.26 3.51,1.37 7.9,-0.58 11.02,1.98 4.17,3.4 3.57,10.87 -1.5,13.13 -6.88,3.02 -15.34,1.14 -21.05,-3.52 -6.81,-5.85 -9.88,-15.03 -9.87,-23.82 0.04,-29.38 -0.07,-58.77 -0.03,-88.14 -0.13,-3.28 2.04,-6.34 5.09,-7.44 z"
       id="path942" />
    <path
       fill="#8716fd"
       opacity="1"
       d="m 421.64,55.9 c 12.42,-0.59 25.95,2.37 34.9,11.55 3.23,2.78 5.39,7.87 2.58,11.68 -3.22,4.6 -10.16,4.33 -14.27,1.12 -3.37,-2.67 -6.78,-5.56 -11.05,-6.62 -6.28,-1.44 -12.99,-1.66 -19.21,0.16 -2.9,1.15 -5.94,3.19 -6.7,6.4 -0.35,3.13 1.02,6.58 3.94,8.05 7.39,4.31 16.17,4.83 24.25,7.16 7.49,2.13 15.33,4.86 20.7,10.79 5.9,6.5 6.74,16.4 3.73,24.4 -3.07,8.12 -10.6,13.87 -18.74,16.32 -10.44,3.16 -21.74,2.85 -32.27,0.29 -7.47,-1.86 -14.9,-4.92 -20.57,-10.26 -2.2,-1.97 -3.61,-5.07 -2.86,-8.03 1.35,-6.56 10.51,-10.78 15.74,-5.79 6.48,6.67 16,9.82 25.2,9.26 5.1,-0.29 10.8,-1.04 14.6,-4.83 3.37,-3.3 2.84,-9.45 -0.98,-12.21 -6.51,-5.04 -15.05,-5.74 -22.79,-7.62 -8.3,-2.07 -16.96,-5.1 -22.79,-11.68 -6.98,-7.68 -7.03,-20.46 -0.42,-28.38 6.52,-7.98 17.11,-10.98 27.01,-11.76 z"
       id="path944" />
    <path
       fill="#8716fd"
       opacity="1"
       d="m 156.3,71.27 c 7.93,-9.06 19.65,-14.83 31.74,-15.12 13.09,-0.6 26.25,5.16 34.87,14.99 6.79,7.98 10.95,18.34 10.82,28.88 -0.23,12.38 0.38,24.77 0.1,37.15 -0.38,6.2 -8.62,9.25 -13.17,5.26 -2.71,-1.92 -2.64,-5.47 -3.02,-8.42 -10.86,9.38 -26.59,12.44 -40.29,8.39 -18.1,-4.91 -31.81,-22.57 -31.77,-41.37 -0.43,-10.85 3.74,-21.54 10.72,-29.76 m 31.34,0.67 c -8.22,0.66 -16.14,4.95 -20.92,11.71 -5.26,7.26 -6.75,17.1 -3.75,25.58 3.83,11.96 16.56,20.28 29.07,18.98 14.52,-0.88 26.89,-14.57 25.83,-29.18 -0.16,-15.44 -14.93,-28.48 -30.23,-27.09 z"
       id="path946" />
    <path
       fill="#8716fd"
       opacity="1"
       d="m 318.5,59.33 c 10.23,-4.19 22.05,-4.31 32.35,-0.31 11.98,4.45 21.7,14.5 25.85,26.57 3.51,9.62 3.3,20.43 -0.32,29.99 -4.51,12.28 -14.92,22.17 -27.31,26.3 -14.24,4.87 -30.69,1.69 -42.27,-7.86 0.35,19.36 0.16,38.72 0.11,58.08 0.31,4.09 -2.78,8.07 -6.94,8.4 -4.42,0.83 -9.07,-2.9 -8.96,-7.44 -0.1,-26.02 0.02,-52.05 0.02,-78.07 0.59,-8.48 -0.98,-17.15 1.25,-25.47 3.22,-13.49 13.4,-25.01 26.22,-30.19 m 9.06,13.39 c -3.81,1.09 -7.39,2.96 -10.5,5.4 -10.13,8.11 -13.62,23.6 -7.21,35.02 6.26,12.68 22.69,18.97 35.76,13.37 13.43,-5.05 21.41,-21.15 16.67,-34.83 -4.15,-14.21 -20.49,-23.3 -34.72,-18.96 z"
       id="path948" />
    <path
       fill="#8716fd"
       opacity="1"
       d="m 328.5,161.59 c 0.35,-0.2 1.06,-0.6 1.41,-0.8 2.59,6.05 5.64,12 7.4,18.35 -2.52,1.74 -3,-2.23 -3.98,-3.67 -2.62,0.03 -5.24,0.05 -7.85,0.09 -1.14,1.4 -1.52,5.34 -4.19,3.72 1.75,-6.11 4.59,-11.91 7.21,-17.69 m -2.42,11.83 c 2.21,0.09 4.43,0.12 6.65,0.07 -0.97,-2.68 -2.03,-5.31 -3.16,-7.92 -1.4,2.5 -2.48,5.16 -3.49,7.85 z"
       id="path950" />
    <path
       fill="#8716fd"
       opacity="1"
       d="m 388.1,162.08 c 0.46,-1.28 2.21,-0.29 3.07,-0.08 -0.31,1.42 -1.24,2.54 -2.11,3.65 -0.2,-1.15 -1.9,-2.38 -0.96,-3.57 z"
       id="path952" />
    <path
       fill="#8716fd"
       opacity="1"
       d="m 432.33,162.13 c 0.06,-2 1.72,-1.27 2.46,-0.11 0.27,4.94 0.01,9.9 0,14.84 3.11,0.09 6.23,-0.1 9.35,0.13 0.08,0.57 0.24,1.72 0.32,2.3 -4.05,0.53 -8.15,0.27 -12.22,0.16 -0.08,-5.76 -0.4,-11.59 0.09,-17.32 z"
       id="path954" />
    <path
       fill="#8716fd"
       opacity="1"
       d="m 472.28,161.6 c 1.14,0.02 2.29,0.06 3.45,0.12 -0.41,1.19 -0.48,3.23 -2.29,2.9 -1.53,0.1 -0.71,-2.11 -1.16,-3.02 z"
       id="path956" />
    <path
       fill="#8716fd"
       opacity="1"
       d="m 463.39,166.54 c 0.53,-1.18 -0.71,-4.4 1.47,-3.86 2.25,-0.59 0.85,2.61 1.33,3.79 1.33,0.48 2.56,1.17 3.38,2.38 -0.86,0.14 -2.58,0.42 -3.44,0.56 0.03,2.3 0.04,4.6 0.09,6.91 1.53,0.57 3.6,0.76 3.47,2.92 -1.87,0.54 -4.4,0.51 -5.44,-1.45 -1.04,-2.6 -0.55,-5.49 -0.68,-8.23 -0.72,-0.36 -2.14,-1.08 -2.85,-1.44 0.67,-0.4 2.01,-1.18 2.67,-1.58 z"
       id="path958" />
    <path
       fill="#8716fd"
       opacity="1"
       d="m 376.65,166.7 c 0.94,0.07 1.88,0.23 2.81,0.41 2.28,-0.37 5.1,-1.48 6.52,1.16 -2.12,0.43 -4.32,0.5 -6.35,1.28 -1.43,3.07 -0.55,6.62 -1.01,9.9 -0.54,-0.02 -1.63,-0.04 -2.17,-0.05 0.07,-4.23 -0.18,-8.48 0.2,-12.7 z"
       id="path960" />
    <path
       fill="#8716fd"
       opacity="1"
       d="m 479.78,166.86 c 0.92,-0.07 1.84,-0.03 2.76,-0.02 2.68,-0.07 6.11,-0.97 7.91,1.67 2.24,3.34 1.22,7.71 0.87,11.46 -0.7,-0.37 -1.38,-0.76 -2.04,-1.18 -0.2,-3.02 0.02,-6.07 -0.59,-9.05 -0.7,-0.3 -2.12,-0.91 -2.82,-1.21 -1.21,0.41 -2.33,0.96 -3.37,1.65 -0.56,2.98 -0.29,6.03 -0.37,9.05 -0.82,0.09 -1.64,0.19 -2.45,0.28 -0.01,-4.21 -0.28,-8.45 0.1,-12.65 z"
       id="path962" />
    <path
       fill="#8716fd"
       opacity="1"
       d="m 339.77,166.86 c 3.16,0 6.45,-0.69 9.4,0.85 2.13,-0.9 4.43,-1.2 6.74,-1.06 2.77,3.53 2.15,8.21 1.78,12.38 -0.51,0.13 -1.52,0.41 -2.02,0.55 -0.43,-3.37 -0.13,-6.78 -0.36,-10.16 -1.73,-0.3 -4.14,-1.22 -4.94,1.04 -0.42,2.91 -0.04,5.87 -0.34,8.8 -0.57,0.05 -1.69,0.17 -2.25,0.23 -0.27,-3.24 -0.11,-6.49 -0.33,-9.73 -0.65,-0.32 -1.96,-0.98 -2.61,-1.31 -4.33,1.84 -1.88,7.09 -2.77,10.65 l -1.27,0.59 -0.93,-0.74 c -0.33,-4.02 -0.1,-8.06 -0.1,-12.09 z"
       id="path964" />
    <path
       fill="#8716fd"
       opacity="1"
       d="m 364.2,178.79 c -5.16,-2.74 -3.37,-12.47 2.89,-12.2 4.26,-0.82 6.44,3.47 6.57,7.05 -3.52,0.52 -7.09,0.33 -10.62,0.8 1.19,1.14 2.24,2.55 3.85,3.12 2.05,-0.11 4.02,-0.82 6.06,-1.12 -1.1,3.69 -5.88,3.74 -8.75,2.35 m -1.07,-7.04 c 2.71,0.23 5.43,0.26 8.15,0.22 -0.25,-0.65 -0.76,-1.95 -1.02,-2.61 -2.78,-1.6 -5.62,-0.22 -7.13,2.39 z"
       id="path966" />
    <path
       fill="#8716fd"
       opacity="1"
       d="m 388.37,167.16 c 0.49,-0.15 1.46,-0.46 1.94,-0.61 0.58,4.28 0.25,8.63 0.1,12.94 -0.81,-0.09 -1.61,-0.17 -2.41,-0.26 0.3,-4.01 -0.49,-8.14 0.37,-12.07 z"
       id="path968" />
    <path
       fill="#8716fd"
       opacity="1"
       d="m 396.68,167.75 c 2.94,-2.13 8.76,-1.69 9.17,2.72 -2.55,-0.65 -5.5,-2.74 -7.94,-0.63 -1.59,2.01 -1.05,4.52 -0.37,6.75 2.77,0.97 5.56,0.22 8.35,-0.29 -1.47,5.06 -9.63,4.15 -11.04,-0.47 -1.03,-2.71 -0.42,-6.17 1.83,-8.08 z"
       id="path970" />
    <path
       fill="#8716fd"
       opacity="1"
       d="m 411.32,178.81 c -4.76,-2.9 -3.14,-11.64 2.59,-12.14 3.46,-0.81 7.16,1.82 7.53,5.33 0.2,2.76 0.65,5.85 -1.14,8.22 -0.34,-0.45 -1.01,-1.36 -1.34,-1.81 -2.39,0.98 -5.26,1.93 -7.64,0.4 m 0.86,-8.77 c -1.75,1.7 -0.84,4.22 -0.68,6.32 1.8,0.43 3.7,1.53 5.5,0.46 1.53,-0.52 1.67,-2.42 2.37,-3.65 -0.45,-1.19 -0.89,-2.38 -1.33,-3.57 -1.9,-0.67 -4.39,-1.43 -5.86,0.44 z"
       id="path972" />
    <path
       fill="#8716fd"
       opacity="1"
       d="m 446.95,175.92 c -2.24,-4.54 2.03,-10.46 7.12,-9.3 5.87,0.75 6.11,7.95 5.26,12.51 l -1.09,0.3 c -0.45,-0.21 -1.34,-0.64 -1.79,-0.85 -3.25,1.7 -8.23,1.35 -9.5,-2.66 m 3.28,-6.33 c -0.65,1.4 -1.22,2.84 -1.72,4.3 0.35,0.66 1.04,1.98 1.39,2.63 2.05,0.8 4.53,1.29 6.26,-0.47 1.84,-2.78 0.57,-6.87 -2.89,-7.48 -0.76,0.26 -2.28,0.77 -3.04,1.02 z"
       id="path974" />
    <path
       fill="#8716fd"
       opacity="1"
       d="m 472.89,167.2 c 0.55,-0.22 1.64,-0.66 2.19,-0.87 0.07,4.31 0.25,8.64 -0.04,12.96 -0.55,0.03 -1.66,0.09 -2.21,0.12 -0.26,-4.06 -0.35,-8.16 0.06,-12.21 z"
       id="path976" />
    <path
       fill="#8716fd"
       opacity="1"
       d="m 498.67,179.23 c -4.96,-2.04 -4.73,-10.59 0.37,-12.29 3.17,-1.12 7.12,0.21 8.47,3.41 1.08,3.14 0.7,6.58 -0.16,9.73 -0.51,-0.41 -1.54,-1.23 -2.05,-1.64 -2.09,0.8 -4.42,1.73 -6.63,0.79 m -1.03,-3.05 c 2.1,0.61 4.76,2.07 6.59,0.08 2.09,-1.7 1.26,-4.46 0.38,-6.56 -0.69,-0.29 -2.06,-0.87 -2.75,-1.17 -3.87,0.44 -5.07,4.3 -4.22,7.65 z"
       id="path978" />
    <path
       fill="#8716fd"
       opacity="1"
       d="m 323.2,183.97 c 2.2,-0.18 4.47,-0.37 6.64,0.13 3.64,1.27 4.24,6.97 0.94,8.98 -1.69,0.87 -3.65,0.88 -5.48,1.17 -0.18,2.06 0.42,4.82 -2.35,5.27 0.01,-5.18 -0.36,-10.4 0.25,-15.55 m 2.04,1.85 c -0.06,2.04 -0.07,4.09 -0.05,6.13 2.13,-0.07 5.83,0.14 5.67,-2.97 0.3,-3.22 -3.33,-3.43 -5.62,-3.16 z"
       id="path980" />
    <path
       fill="#8716fd"
       opacity="1"
       d="m 416.63,184.72 c 3.06,-1.98 8.94,-1.33 9.21,3.12 -2.75,-0.76 -6.18,-4.37 -8.34,-0.53 -0.75,3.13 3.49,2.48 5.39,3.51 3.72,0.57 4.17,6.46 0.79,7.82 -3.12,1.64 -8.96,0.64 -8.94,-3.69 1.36,-0.07 2.47,0.54 3.32,1.83 1.98,0.3 5.73,1 5.88,-1.92 -0.21,-2.98 -3.83,-2.42 -5.83,-3.36 -3.02,-0.63 -4.02,-4.98 -1.48,-6.78 z"
       id="path982" />
    <path
       fill="#8716fd"
       opacity="1"
       d="m 441.65,184.55 c 0.38,-0.28 1.16,-0.85 1.54,-1.13 0.93,4.25 0.35,8.65 0.42,12.96 0.72,0.39 2.15,1.16 2.87,1.55 -1.41,1.55 -4.2,1.69 -4.66,-0.76 -0.46,-4.18 -0.3,-8.43 -0.17,-12.62 z"
       id="path984" />
    <path
       fill="#8716fd"
       opacity="1"
       d="m 469.33,184.32 c 1.72,-1.84 3.11,1.7 1.37,2.29 -1.16,1.2 -3.1,-1.99 -1.37,-2.29 z"
       id="path986" />
    <path
       fill="#8716fd"
       opacity="1"
       d="m 402,188.18 c 0.13,-1.59 0.61,-3.05 2.04,-3.94 0.15,1.35 0.28,2.71 0.41,4.06 0.74,0.36 2.23,1.08 2.97,1.43 -0.74,0.39 -2.22,1.17 -2.96,1.55 -0.03,1.69 -0.04,3.37 -0.04,5.06 1.44,0.54 3.53,0.7 2.82,2.85 -1.71,0.11 -3.77,-0.12 -4.56,-1.88 -0.72,-2.62 0.23,-5.75 -1.99,-7.82 0.33,-0.33 0.98,-0.98 1.31,-1.31 z"
       id="path988" />
    <path
       fill="#8716fd"
       opacity="1"
       d="m 462.19,184.22 c 1.17,1.08 1.6,2.54 1.83,4.06 0.88,0.52 1.77,1.05 2.66,1.58 -0.73,0.28 -2.19,0.85 -2.91,1.13 -0.02,1.74 -0.03,3.47 -0.03,5.21 0.78,0.42 2.33,1.27 3.1,1.69 -0.7,2.32 -3.69,1.25 -4.73,-0.14 -0.8,-2.21 -0.48,-4.6 -0.57,-6.89 -0.47,-0.23 -1.4,-0.7 -1.86,-0.94 1.9,-1.34 1.98,-3.67 2.51,-5.7 z"
       id="path990" />
    <path
       fill="#8716fd"
       opacity="1"
       d="m 334.56,196.48 c -2.62,-4.3 2.33,-9.96 6.92,-7.8 4.33,1.77 3.38,7.15 2.94,10.85 -0.5,-0.31 -1.51,-0.93 -2.01,-1.24 -2.69,1.33 -6.49,1.36 -7.85,-1.81 m 1.53,-2.5 c -0.58,3.78 5.88,4.36 6.53,0.9 0.49,-1.7 -0.71,-3.18 -1.33,-4.65 -2.37,-0.26 -5.74,0.69 -5.2,3.75 z"
       id="path992" />
    <path
       fill="#8716fd"
       opacity="1"
       d="m 354.67,188.83 c 3.76,0.05 7.55,-0.78 11.27,0.07 2.09,-0.39 4.21,-0.54 6.33,-0.29 0.97,3.36 1.32,6.9 0.81,10.37 l -1.51,0.4 c -0.61,-3.13 -0.18,-6.37 -1.08,-9.46 -1.27,0.48 -3.11,0.39 -3.54,1.99 -0.57,2.7 0.9,6.28 -2.04,7.97 -0.27,-3.19 -0.18,-6.4 -0.52,-9.58 -1.28,0.24 -3.18,-0.49 -3.78,1.07 -0.63,2.73 -0.29,5.58 -0.57,8.36 -2.75,-0.89 -1.67,-3.85 -2.04,-5.97 -0.45,-1.33 -1.17,-2.53 -1.82,-3.76 -2.03,4.89 -4.08,9.79 -6.55,14.48 -2.08,-2.02 0.31,-4.42 0.81,-6.53 -1.61,-3.18 -3.36,-6.3 -4.7,-9.61 3.66,0.34 3.86,4.91 5.56,7.41 1.22,-2.25 2.35,-4.56 3.37,-6.92 z"
       id="path994" />
    <path
       fill="#8716fd"
       opacity="1"
       d="m 377.92,198.09 c -3.74,-2.74 -1.86,-10.07 3.11,-9.82 3.47,-0.38 5.23,3.04 5.43,6.01 -3,0.17 -6.01,0.18 -9,0.41 0.99,0.93 2.01,1.84 3.04,2.74 1.85,-0.35 3.72,-0.69 5.62,-0.72 -1.85,2.56 -5.66,3.51 -8.2,1.38 m -0.51,-5.56 c 2.37,0.18 4.74,0.22 7.12,0.1 -0.98,-1.06 -1.81,-2.8 -3.56,-2.45 -1.57,-0.1 -2.42,1.55 -3.56,2.35 z"
       id="path996" />
    <path
       fill="#8716fd"
       opacity="1"
       d="m 431.44,188.7 c 3.15,-1.51 7.32,0.62 7.52,4.21 1.01,3.91 -3.25,7.43 -6.97,6.15 -4.73,-1.12 -5.05,-8.73 -0.55,-10.36 m 1.08,1.68 c -1.6,0.81 -2.66,2.67 -2.1,4.47 0.6,3.29 6.82,2.91 6.56,-0.73 0.51,-2.67 -1.96,-4.64 -4.46,-3.74 z"
       id="path998" />
    <path
       fill="#8716fd"
       opacity="1"
       d="m 447.7,188.78 c 0.47,-0.07 1.4,-0.22 1.86,-0.29 0.19,2.82 0.35,5.64 0.84,8.43 1.67,-0.3 4.46,0.86 5.04,-1.37 0.33,-2.5 0.18,-5.04 0.38,-7.56 0.65,0.34 1.28,0.71 1.89,1.11 0.35,3.2 0.17,6.45 -0.12,9.65 -3.04,-0.3 -6.88,1.7 -9.06,-1.27 -1.54,-2.55 -0.61,-5.85 -0.83,-8.7 z"
       id="path1000" />
    <path
       fill="#8716fd"
       opacity="1"
       d="m 468.96,188.76 c 0.75,-0.13 1.5,-0.27 2.26,-0.4 -0.48,3.67 1.35,8.18 -1.12,11.26 -2.27,-3.05 -0.72,-7.31 -1.14,-10.86 z"
       id="path1002" />
    <path
       fill="#8716fd"
       opacity="1"
       d="m 487.93,188.71 c 3.19,-0.1 6.55,-0.89 9.44,0.9 0.71,3.12 0.89,6.33 0.8,9.52 -0.56,0 -1.67,0 -2.23,0 -0.02,-2.92 0,-5.86 -0.51,-8.75 -1.7,0.09 -3.65,-0.44 -4.97,0.92 -0.65,2.75 0.45,5.93 -1.31,8.36 -2.52,-2.81 -0.71,-7.42 -1.22,-10.95 z"
       id="path1004" />
    <path
       fill="#8716fd"
       opacity="1"
       d="m 500.96,191.07 c 0.68,-3.62 5.01,-2.87 7.63,-2.28 0.07,0.85 0.14,1.7 0.22,2.55 -1.74,-0.52 -3.49,-0.94 -5.27,-1.23 -0.04,0.44 -0.11,1.32 -0.15,1.75 2.31,0.98 6.98,1.39 5.9,4.98 -1.32,3.61 -8.28,3.33 -9,-0.78 2.41,0.47 4.83,0.91 7.29,1.08 -0.73,-3.69 -6.52,-2.09 -6.62,-6.07 z"
       id="path1006" />
    <path
       fill="#8716fd"
       opacity="1"
       d="m 388.64,188.67 c 2.81,-0.07 5.63,-0.34 8.44,-0.02 1.61,3.37 3.1,8.56 -0.23,11.31 -0.51,-3.26 0.13,-6.71 -1.34,-9.78 -1.6,0.33 -4.16,-0.36 -4.54,1.84 -0.55,2.69 0.66,6.1 -2.08,7.91 -0.49,-3.74 -0.27,-7.51 -0.25,-11.26 z"
       id="path1008" />
    <path
       fill="#8716fd"
       opacity="1"
       d="m 476.32,189.23 c 3.18,-2.26 8.59,-0.51 8.69,3.73 0.94,3.93 -3.32,7.36 -7.03,6.1 -4.22,-1.12 -4.87,-7.24 -1.66,-9.83 m 2.2,1.15 c -2.23,0.99 -2.84,3.76 -1.66,5.79 1.36,0.97 3.14,1.1 4.73,0.65 2.95,-2.23 0.92,-8.05 -3.07,-6.44 z"
       id="path1010" />
  </g>
</svg>
